<svg xmlns="http://www.w3.org/2000/svg" width="512" height="436" viewBox="0 0 512 436" fill="none"><path d="M490.224 427.542L20.0312 429.104L20.049 434.456L490.242 432.894L490.224 427.542Z" fill="#657484"/><path d="M20.1301 432.931L492.249 433.381L511.313 185.793L256.972 0.990234L1.07617 185.863L20.1301 432.92V432.936V432.931Z" fill="#657484"/><path d="M203.592 43.22C203.592 43.22 215.627 34.5223 230.284 23.9245L256.94 4.67188L257.201 4.86456C257.34 4.97161 269.236 13.6158 283.638 24.0637C298.034 34.5277 309.855 43.129 309.908 43.1665C309.962 43.22 287.078 43.2468 256.779 43.2468C226.481 43.2468 203.565 43.2307 203.592 43.204V43.22Z" fill="#657484"/><path d="M122.344 102.034C122.686 101.788 139.774 89.4509 160.297 74.6301L197.625 47.6646H315.95L353.113 74.6889C373.555 89.5526 390.521 101.874 390.82 102.093C391.285 102.42 383.042 102.479 332.381 102.479H273.398L263.585 96.104C258.195 92.6035 253.596 89.7881 253.361 89.8417C253.131 89.8952 248.367 92.7694 242.784 96.2164L232.619 102.495H177.167C126.452 102.495 121.773 102.452 122.344 102.056V102.04V102.034Z" fill="#56626E"/><path d="M341.329 146.014L281.742 107.316H397.231L449.366 145.125C478.04 165.925 501.977 183.363 502.554 183.882C503.141 184.402 480.743 184.798 452.261 184.771L400.916 184.717L341.329 146.019V146.014Z" fill="#424F5B"/><path d="M11.3633 183.251C11.7158 182.925 35.5453 165.652 64.3052 144.879L116.606 107.107H169.778C215.241 107.107 222.501 107.423 219.867 109.254C218.174 110.431 190.279 127.704 157.892 147.625L98.9891 183.85H54.8504C30.5828 183.85 11.0161 183.578 11.3686 183.251H11.3633Z" fill="#424F5B"/><path d="M428.565 238.226V201.754L419.639 196.338L410.713 190.921L458.169 190.509C484.279 190.279 505.961 190.439 506.389 190.851C507.169 191.633 502.607 258.255 501.052 268.842L500.192 274.708H428.57V238.236V238.22L428.565 238.226Z" fill="#3D4853"/><path d="M11.2342 271.962C11.2342 270.458 9.82933 251.601 8.10929 230.063C6.40528 208.525 4.99506 190.733 4.98438 190.514C4.98438 190.295 23.7926 190.129 46.7888 190.161L88.6039 190.187L81.1789 194.865L73.7539 199.544V274.718H42.4887C13.7608 274.718 11.2235 274.499 11.2235 271.983H11.2395V271.967L11.2342 271.962Z" fill="#3D4853"/><path d="M431.131 354.343C430.586 349.049 430.121 330.016 430.121 312.058V279.403H465.291C484.628 279.403 500.461 279.58 500.45 279.799C500.45 280.019 499.046 297.81 497.325 319.348C495.621 340.887 494.211 359.733 494.201 361.247C494.201 363.763 491.674 363.982 463.154 363.982H432.119L431.109 354.353H431.136V354.337L431.131 354.343Z" fill="#373F47"/><path d="M18.8485 363.575C18.7417 363.355 17.1445 344.333 15.3123 321.29L11.9844 279.392H73.7669V363.96H46.4172C31.3749 363.96 18.9714 363.783 18.8645 363.564H18.8485V363.58V363.575Z" fill="#373F47"/><path d="M23.1149 423.345C22.0786 413.689 19.0605 375.917 19.0605 372.502C19.0605 370.612 23.6064 370.232 46.4102 370.232H73.7599V418.779H431.688V370.232H492.653V375.317C492.653 378.122 491.836 391.508 490.827 405.077L488.984 429.746H311.467C213.831 429.746 109.218 430.212 78.9895 430.784L24.0284 431.812L23.1149 423.334V423.35V423.345Z" fill="#353739"/><path d="M126.9 424.574V418.874H431.694V370.327H492.659V372.243C492.659 377.055 491.938 388.681 490.202 411.969C489.508 421.363 488.947 429.172 488.947 429.348C488.947 429.621 477.414 429.648 372.844 429.648C268.274 429.648 160.756 429.868 137.418 430.14L126.921 430.264V424.563H126.895V424.579L126.9 424.574Z" fill="#353739"/><path d="M446.403 368.81C455.19 368.783 469.565 368.783 478.352 368.81C487.139 368.836 479.949 368.863 462.385 368.863C444.822 368.863 437.626 368.836 446.419 368.81H446.403Z" fill="#353739"/><path d="M126.905 430.745C126.905 430.526 128.267 430.456 134.768 430.349C152.033 430.076 258.857 429.841 370.889 429.841H489.15V429.332C489.15 429.043 489.625 422.374 490.213 414.506C492.136 388.632 492.654 380.138 492.654 374.422V370.129H431.689V418.676H126.895V417.498H431.486V415.202C431.486 412.793 430.775 376.804 430.642 371.826L430.561 368.941H494.23L494.133 369.583C494.08 369.936 493.001 383.751 491.746 400.285L489.454 430.355L419.985 430.494C381.77 430.574 315.265 430.713 272.163 430.81C155.831 431.083 126.895 431.056 126.895 430.729H126.911V430.745H126.905Z" fill="#353739"/><path d="M141.365 430.829C133.684 430.775 128.182 430.679 129.149 430.599C132.765 430.336 229.611 430.053 357.3 429.929L489.123 429.806L489.219 429.191C489.299 428.629 490.72 409.06 491.676 395.305C492.317 386.141 492.643 379.949 492.616 377.786C492.59 375.966 492.574 376.105 492.424 379.06C492.136 384.76 491.318 397.028 490.106 413.396C489.465 422.051 488.931 429.26 488.931 429.394C488.931 429.614 469.289 429.656 375.953 429.656C267.083 429.656 160.782 429.887 137.882 430.165L126.895 430.304V418.898L279.342 418.845L431.79 418.791L279.342 418.738L126.895 418.684V417.506H431.555L431.416 407.278C431.347 401.658 431.154 391.456 430.994 384.616C430.845 377.781 430.706 371.46 430.706 370.571V368.96H494.112L493.947 370.571C493.85 371.46 492.787 385.205 491.569 401.123C490.357 417.041 489.305 430.101 489.251 430.154C489.112 430.293 364.249 430.577 251.629 430.716C201.663 430.77 159.549 430.839 158.048 430.866C156.547 430.893 149.025 430.866 141.344 430.813V430.839H141.36L141.365 430.829ZM477.473 370.191C469.065 370.164 455.31 370.164 446.902 370.191C438.494 370.218 445.374 370.245 462.19 370.245C479.006 370.245 485.881 370.218 477.478 370.191H477.473Z" fill="#353739"/><path d="M141.358 430.827C132.362 430.757 128.158 430.677 129.536 430.58C133.468 430.307 216.393 430.072 353.483 429.922L489.115 429.783L489.211 428.975C489.334 428.033 491.503 397.85 492.048 389.506C492.251 386.332 492.47 382.189 492.523 380.305L492.619 376.874L492.347 381.183C491.69 391.401 491.012 401.297 490.002 414.796C489.414 422.728 488.939 429.317 488.939 429.43C488.939 429.569 455.366 429.633 380.357 429.633C274.426 429.633 163.494 429.863 139.066 430.142L126.908 430.281V418.875L259.127 418.821L391.345 418.768L259.127 418.714L126.908 418.661V417.483H431.569L431.43 407.544C431.36 402.073 431.168 391.925 431.008 384.978C430.848 378.03 430.719 371.575 430.719 370.633V368.926H462.465C487.769 368.926 494.195 368.979 494.126 369.172C494.03 369.472 493.362 377.87 491.108 407.447C490.168 419.865 489.345 430.067 489.281 430.12C489.142 430.259 366.245 430.543 251.755 430.682C201.735 430.736 159.578 430.805 158.077 430.832C156.576 430.859 149.055 430.832 141.374 430.778V430.832H141.358V430.827ZM470.814 370.189C466.066 370.162 458.272 370.162 453.523 370.189C448.774 370.216 452.663 370.242 462.161 370.242C471.658 370.242 475.563 370.216 470.798 370.189H470.814Z" fill="#353739"/><path d="M128.471 430.776L127.162 430.695L129.032 430.599C135.923 430.23 185.248 430.08 345.757 429.957C424.574 429.903 489.086 429.818 489.102 429.791C489.129 429.764 489.348 427.029 489.578 423.721C489.807 420.413 490.315 413.466 490.7 408.279C491.912 391.639 492.404 384.033 492.553 379.414C492.649 376.459 492.537 377.444 492.291 381.699C491.992 386.87 491.597 392.966 491.106 399.833C490.465 408.847 489.06 427.843 488.963 428.795L488.883 429.657H398.987C234.083 429.657 118.076 430.053 79.7919 430.711L74.4395 430.808V418.856L217.47 418.813L360.5 418.77L243.73 418.727L126.959 418.685V417.577L279.242 417.534L431.524 417.491L431.481 413.129C431.428 406.112 430.851 376.427 430.674 371.433L430.594 368.971H494.193L494.113 369.287C494.017 369.672 493.525 375.945 491.207 406.235C490.197 419.391 489.353 430.165 489.311 430.192C489.268 430.219 453.842 430.315 410.579 430.412C367.3 430.508 307.403 430.631 277.473 430.701C220.605 430.84 130.731 430.84 128.482 430.701V430.77L128.471 430.776ZM467.388 370.165C464.482 370.149 459.744 370.149 456.892 370.165C454.039 370.181 456.416 370.208 462.185 370.208C467.954 370.208 470.305 370.192 467.383 370.165H467.388Z" fill="#353739"/><path d="M262.613 429.825C263.243 429.798 264.236 429.798 264.824 429.825C265.412 429.852 264.893 429.868 263.676 429.868C262.458 429.868 261.982 429.841 262.613 429.825Z" fill="#353739"/><path d="M22.8632 430.868C22.8204 430.622 21.7574 416.904 20.5021 400.37C19.2468 383.853 18.1838 369.995 18.125 369.599L18.0449 368.876H74.1225L74.2026 370.027C74.256 370.659 74.2987 381.583 74.2987 394.327V417.482H126.803V418.724H73.7539V370.134H57.2105C29.4923 370.134 22.1474 370.38 19.9519 371.365C19.0492 371.761 18.969 371.938 19.0118 373.378C19.0812 375.813 19.9412 387.465 21.047 401.018C22.1367 414.34 22.7403 420.929 23.5309 428.053C23.7232 429.75 23.8728 431.173 23.8728 431.238C23.8728 431.291 23.6537 431.345 23.3973 431.345C22.9593 431.345 22.9219 431.302 22.8525 430.895V430.868H22.8685H22.8632Z" fill="#353739"/><path d="M23.1611 431.125C22.9154 430.932 23.0115 432.11 20.1697 394.97C19.1067 381.037 18.204 369.465 18.1612 369.262L18.0918 368.876H74.0198L74.0892 369.262C74.1319 369.465 74.2121 380.406 74.2548 393.562L74.351 417.482H126.812V418.724H73.7634V370.108L51.4883 370.177C37.5517 370.22 28.2571 370.3 26.6493 370.397C23.3214 370.6 21.0404 370.905 20.0736 371.258C19.0106 371.654 18.861 372.024 18.9839 373.993C19.8012 387.326 22.0554 414.624 23.2679 426.04C23.5297 428.502 23.7434 430.665 23.7434 430.841C23.7434 431.211 23.4442 431.361 23.1451 431.141L23.1611 431.125Z" fill="#353739"/><path d="M23.1664 431.125C22.9047 430.932 23.0009 432.067 20.2445 395.938C19.1388 381.551 18.2093 369.572 18.1719 369.326L18.0918 368.876H74.0465L74.1159 369.326C74.196 369.835 74.3349 395.515 74.3349 408.779V417.46H126.839V418.702H73.7901V370.113H56.0769C24.4164 370.113 19.6623 370.386 19.0907 372.125C18.9251 372.645 18.9839 373.876 19.5821 382.231C20.784 398.807 22.3812 417.487 23.4442 427.261C23.6365 429.038 23.7968 430.627 23.7968 430.815C23.7968 431.2 23.4976 431.361 23.1985 431.131H23.1718V431.114L23.1664 431.125Z" fill="#353739"/><path d="M70.3844 431.048C85.9021 430.721 131.675 430.24 128.551 430.432C127.215 430.513 126.761 430.625 126.943 430.802C127.049 430.909 129.752 430.978 136.387 431.048C142.46 431.101 135.57 431.144 116.516 431.155C100.48 431.155 80.8007 431.208 72.7881 431.235L58.2266 431.289L70.3844 431.026V431.042V431.048Z" fill="#353739"/><path d="M75.7125 431.021C83.3939 430.871 102.448 430.636 115.605 430.529C126.016 430.448 126.961 430.459 126.892 430.668C126.822 430.861 126.934 430.898 127.613 430.93C128.884 431 89.5102 431.176 79.4517 431.16C73.4049 431.144 72.1656 431.107 75.7125 431.037V431.021Z" fill="#353739"/><path d="M75.6487 431.019C83.2073 430.87 102.277 430.634 115.541 430.527C125.37 430.447 126.977 430.457 126.935 430.634C126.908 430.784 127.1 430.853 127.656 430.896C128.612 430.977 91.5297 431.185 79.452 431.159C70.4566 431.132 70.4298 431.132 75.6434 431.035V431.019H75.6487Z" fill="#353739"/><path d="M75.3616 431.021C82.6477 430.871 101.686 430.625 115.184 430.529C125.964 430.448 126.963 430.459 126.963 430.668C126.963 430.845 127.128 430.898 127.684 430.93C129.046 431.01 95.5427 431.176 82.9736 431.16C72.4664 431.144 71.2111 431.118 75.3563 431.037V431.021H75.3616Z" fill="#353739"/><path d="M70.4741 431.11C70.4741 431.11 75.8532 430.987 82.3488 430.907C88.8443 430.827 95.7085 430.73 97.6208 430.687C99.5171 430.645 106.873 430.58 113.956 430.521C125.708 430.441 126.851 430.452 127.016 430.661C127.113 430.8 127.438 430.907 127.807 430.923C128.149 430.95 121.653 431.003 113.368 431.073C97.4659 431.18 70.3886 431.212 70.4848 431.126H70.4688V431.11H70.4741Z" fill="#353739"/><path d="M75.2256 431.019C82.8429 430.853 101.032 430.623 114.503 430.527C124.834 430.446 126.87 430.473 126.966 430.623C127.035 430.73 127.377 430.843 127.746 430.896C128.712 431.019 100.818 431.185 84.4294 431.158C73.3079 431.142 71.3956 431.116 75.2309 431.035V431.019H75.2256Z" fill="#353739"/><path d="M493.48 369.081L488.924 430.827Z" fill="#353739"/><path d="M493.48 369.081L488.924 430.827" stroke="#353739" stroke-width="1.42" stroke-miterlimit="11.34"/><path d="M494.319 370.191H430.213L430.907 416.018" fill="#353739"/><path d="M494.319 370.191H430.213L430.907 416.018" stroke="#353739" stroke-width="1.42" stroke-miterlimit="11.34"/><path d="M434.08 419.475H69.4688Z" fill="#353739"/><path d="M434.08 419.475H69.4688" stroke="#353739" stroke-width="1.42" stroke-miterlimit="11.34"/><path d="M23.3477 431.513L489.2 431.781Z" fill="#353739"/><path d="M23.3477 431.513L489.2 431.781" stroke="#353739" stroke-width="1.42" stroke-miterlimit="11.34"/><path d="M19.3477 368.676L24.043 431.24Z" fill="#353739"/><path d="M19.3477 368.676L24.043 431.24" stroke="#353739" stroke-width="1.42" stroke-miterlimit="11.34"/><path d="M74.6057 370.892C74.2372 370.988 73.8686 371.068 73.5 371.165Z" fill="#353739"/><path d="M74.6057 370.892C74.2372 370.988 73.8686 371.068 73.5 371.165" stroke="#353739" stroke-width="1.42" stroke-miterlimit="11.34"/><path d="M18.2422 370.055L74.0633 370.617Z" fill="#353739"/><path d="M18.2422 370.055L74.0633 370.617" stroke="#353739" stroke-width="1.42" stroke-miterlimit="11.34"/><path d="M73.8633 418.393L73.9624 368.668Z" fill="#353739"/><path d="M73.8633 418.393L73.9624 368.668" stroke="#353739" stroke-width="1.42" stroke-miterlimit="11.34"/><path d="M431.895 420.062V419.57Z" fill="#353739"/><path d="M431.895 420.062V419.57" stroke="#353739" stroke-width="1.42" stroke-miterlimit="11.34"/><path d="M432.331 410.274L431.348 419.079Z" fill="#353739"/><path d="M432.331 410.274L431.348 419.079" stroke="#373F47" stroke-width="1.42" stroke-miterlimit="11.34"/><path d="M429.242 279.498L431.096 364.462Z" fill="#353739"/><path d="M429.242 279.498L431.096 364.462" stroke="#373F47" stroke-width="1.42" stroke-miterlimit="11.34"/><path d="M495 363.969L430.227 363.873Z" fill="#353739"/><path d="M495 363.969L430.227 363.873" stroke="#373F47" stroke-width="1.42" stroke-miterlimit="11.34"/><path d="M500.169 279.876L494.016 363.663Z" fill="#353739"/><path d="M500.169 279.876L494.016 363.663" stroke="#373F47" stroke-width="1.42" stroke-miterlimit="11.34"/><path d="M428.182 280.28L501.155 279.884Z" fill="#353739"/><path d="M428.182 280.28L501.155 279.884" stroke="#373F47" stroke-width="1.42" stroke-miterlimit="11.34"/><path d="M17.8945 363.478L74.1216 363.339Z" fill="#353739"/><path d="M17.8945 363.478L74.1216 363.339" stroke="#373F47" stroke-width="1.42" stroke-miterlimit="11.34"/><path d="M73.5 364.79L73.9113 279.729Z" fill="#353739"/><path d="M73.5 364.79L73.9113 279.729" stroke="#373F47" stroke-width="1.42" stroke-miterlimit="11.34"/><path d="M10.8477 279.73L75.2262 279.661Z" fill="#353739"/><path d="M10.8477 279.73L75.2262 279.661" stroke="#373F47" stroke-width="1.42" stroke-miterlimit="11.34"/><path d="M18.594 364.869C18.5512 364.773 18.4978 364.693 18.4551 364.596Z" fill="#353739"/><path d="M18.594 364.869C18.5512 364.773 18.4978 364.693 18.4551 364.596" stroke="#373F47" stroke-width="1.42" stroke-miterlimit="11.34"/><path d="M11.6816 280.702L18.2466 364.312Z" fill="#353739"/><path d="M11.6816 280.702L18.2466 364.312" stroke="#3D4853" stroke-width="1.42" stroke-miterlimit="11.34"/><path d="M408.834 190.13L507.496 190.719Z" fill="#353739"/><path d="M408.834 190.13L507.496 190.719" stroke="#3D4853" stroke-width="1.42" stroke-miterlimit="11.34"/><path d="M501.258 274.107V272.93Z" fill="#353739"/><path d="M501.258 274.107V272.93" stroke="#3D4853" stroke-width="1.42" stroke-miterlimit="11.34"/><path d="M507.882 189.926L501.045 275.479Z" fill="#353739"/><path d="M507.882 189.926L501.045 275.479" stroke="#3D4853" stroke-width="1.42" stroke-miterlimit="11.34"/><path d="M407.652 189.547L427.785 203.249Z" fill="#353739"/><path d="M407.652 189.547L427.785 203.249" stroke="#3D4853" stroke-width="1.42" stroke-miterlimit="11.34"/><path d="M428.561 275.48V274.699Z" fill="#353739"/><path d="M428.561 275.48V274.699" stroke="#3D4853" stroke-width="1.42" stroke-miterlimit="11.34"/><path d="M427.592 201.482L428.179 275.876Z" fill="#353739"/><path d="M427.592 201.482L428.179 275.876" stroke="#3D4853" stroke-width="1.42" stroke-miterlimit="11.34"/><path d="M502.816 274.891L428.379 273.714Z" fill="#353739"/><path d="M502.816 274.891L428.379 273.714" stroke="#3D4853" stroke-width="1.42" stroke-miterlimit="11.34"/><path d="M10.5 273.017L74.3284 274.264Z" fill="#353739"/><path d="M10.5 273.017L74.3284 274.264" stroke="#3D4853" stroke-width="1.42" stroke-miterlimit="11.34"/><path d="M4.15234 190.375L91.6072 189.54Z" fill="#353739"/><path d="M4.15234 190.375L91.6072 189.54" stroke="#3D4853" stroke-width="1.42" stroke-miterlimit="11.34"/><path d="M74.0449 274.531C74.089 274.204 74.1441 273.889 74.1881 273.562Z" fill="#353739"/><path d="M74.0449 274.531C74.089 274.204 74.1441 273.889 74.1881 273.562" stroke="#3D4853" stroke-width="1.42" stroke-miterlimit="11.34"/><path d="M93.1109 188.842L73.2129 201.024Z" fill="#353739"/><path d="M93.1109 188.842L73.2129 201.024" stroke="#3D4853" stroke-width="1.42" stroke-miterlimit="11.34"/><path d="M74.3184 275.505L75.0128 198.816Z" fill="#353739"/><path d="M74.3184 275.505L75.0128 198.816" stroke="#3D4853" stroke-width="1.42" stroke-miterlimit="11.34"/><path d="M4.84766 189.547L10.7823 273.719Z" fill="#353739"/><path d="M4.84766 189.547L10.7823 273.719" stroke="#3D4853" stroke-width="1.42" stroke-miterlimit="11.34"/><path d="M12.7129 279.524L18.6476 365.211Z" fill="#373F47"/><path d="M12.7129 279.524L18.6476 365.211" stroke="#373F47" stroke-width="1.42" stroke-miterlimit="11.34"/><path d="M279.895 106.903L401.061 185.247Z" fill="#56626E"/><path d="M279.895 106.903L401.061 185.247" stroke="#424F5B" stroke-width="1.42" stroke-miterlimit="11.34"/><path d="M397.743 107.043H282.105Z" fill="#56626E"/><path d="M397.743 107.043H282.105" stroke="#424F5B" stroke-width="1.42" stroke-miterlimit="11.34"/><path d="M504.545 184.974C504.369 184.835 504.176 184.701 504 184.562Z" fill="#56626E"/><path d="M504.545 184.974C504.369 184.835 504.176 184.701 504 184.562" stroke="#424F5B" stroke-width="1.42" stroke-miterlimit="11.34"/><path d="M397.621 107.873L504.685 184.836Z" fill="#56626E"/><path d="M397.621 107.873L504.685 184.836" stroke="#424F5B" stroke-width="1.42" stroke-miterlimit="11.34"/><path d="M400.5 185.519L504.253 184.411Z" fill="#56626E"/><path d="M400.5 185.519L504.253 184.411" stroke="#424F5B" stroke-width="1.42" stroke-miterlimit="11.34"/><path d="M98.9688 184.65L224.008 107.714Z" fill="#56626E"/><path d="M98.9688 184.65L224.008 107.714" stroke="#424F5B" stroke-width="1.42" stroke-miterlimit="11.34"/><path d="M8.69727 184.251L100.137 184.444Z" fill="#56626E"/><path d="M8.69727 184.251L100.137 184.444" stroke="#424F5B" stroke-width="1.42" stroke-miterlimit="11.34"/><path d="M116.155 106.729L5.77344 185.618Z" fill="#56626E"/><path d="M116.155 106.729L5.77344 185.618" stroke="#424F5B" stroke-width="1.42" stroke-miterlimit="11.34"/><path d="M225.955 107.903L116.348 106.918Z" fill="#56626E"/><path d="M225.955 107.903L116.348 106.918" stroke="#424F5B" stroke-width="1.42" stroke-miterlimit="11.34"/><path d="M397.061 107.043L402.723 111.475Z" fill="#56626E"/><path d="M397.061 107.043L402.723 111.475" stroke="#3D4853" stroke-width="1.42" stroke-miterlimit="11.34"/><path d="M504.682 189.134H508.544Z" fill="#56626E"/><path d="M504.682 189.134H508.544" stroke="#3D4853" stroke-width="1.42" stroke-miterlimit="11.34"/><path d="M432.903 408.126L430.895 420.924Z" fill="#56626E"/><path d="M432.903 408.126L430.895 420.924" stroke="#353739" stroke-width="1.42" stroke-miterlimit="11.34"/><path d="M437.732 405.911L432.545 421.69Z" fill="#56626E"/><path d="M437.732 405.911L432.545 421.69" stroke="#353739" stroke-width="1.42" stroke-miterlimit="11.34"/><path d="M196.863 47.9258L316.785 48.0649Z" fill="#56626E"/><path d="M196.863 47.9258L316.785 48.0649" stroke="#56626E" stroke-width="1.42" stroke-miterlimit="11.34"/><path d="M120.895 103.579L199.504 47.1001Z" fill="#56626E"/><path d="M120.895 103.579L199.504 47.1001" stroke="#56626E" stroke-width="1.42" stroke-miterlimit="11.34"/><path d="M253.652 89.3159L231.682 103.853Z" fill="#56626E"/><path d="M253.652 89.3159L231.682 103.853" stroke="#56626E" stroke-width="1.42" stroke-miterlimit="11.34"/><path d="M120.197 102.747L233.202 102.051Z" fill="#56626E"/><path d="M120.197 102.747L233.202 102.051" stroke="#56626E" stroke-width="1.42" stroke-miterlimit="11.34"/><path d="M252.682 89.7441L273.552 103.446Z" fill="#56626E"/><path d="M252.682 89.7441L273.552 103.446" stroke="#56626E" stroke-width="1.42" stroke-miterlimit="11.34"/><path d="M315.408 47.5132L392.083 103.157Z" fill="#56626E"/><path d="M315.408 47.5132L392.083 103.157" stroke="#56626E" stroke-width="1.42" stroke-miterlimit="11.34"/><path d="M274.242 102.747L390.153 102.335Z" fill="#56626E"/><path d="M274.242 102.747L390.153 102.335" stroke="#56626E" stroke-width="1.42" stroke-miterlimit="11.34"/><path d="M489.523 432.496L507.893 187.194L256.826 4.53174L4.98438 186.6L23.7339 434.829" stroke="#657484" stroke-width="2.27" stroke-miterlimit="11.34"/><path d="M256.954 0.990234L511.279 185.809L492.225 433.397L20.1066 434.355L1.03125 185.879L256.943 0.990234H256.959H256.954Z" stroke="black" stroke-width="1.98" stroke-miterlimit="11.34"/><path d="M76.4924 415.263H429.341L425.041 203.435L253.502 92.2441L76.0918 201.482L76.4871 415.263H76.4924Z" stroke="black" stroke-width="1.42" stroke-miterlimit="11.34"/><path d="M195.969 45.3501H319.347" stroke="black" stroke-width="1.42" stroke-miterlimit="11.34"/><path d="M113.834 104.827H399.879" stroke="black" stroke-width="1.42" stroke-miterlimit="11.34"/><path d="M0 187.059H512" stroke="black" stroke-width="1.42" stroke-miterlimit="11.34"/><path d="M7.74219 277.036H503.717" stroke="black" stroke-width="1.42" stroke-miterlimit="11.34"/><path d="M15.1973 366.732H496.803" stroke="black" stroke-width="1.42" stroke-miterlimit="11.34"/><path d="M255.632 78.2139L69.6809 195.876L68.3027 424.002L443.811 424.837L443.538 194.768L255.648 78.2139H255.632Z" fill="url(#paint0_linear_4814_3347)"/><path d="M433.424 424.384H443.781Z" fill="#75D81C"/><path d="M433.424 424.384H443.781" stroke="#75D81C" stroke-width="0.3" stroke-miterlimit="11.34"/><path d="M442.773 194.615L443.372 424.577Z" fill="#75D81C"/><path d="M442.773 194.615L443.372 424.577" stroke="#75D81C" stroke-width="0.28" stroke-miterlimit="11.34"/><path d="M438.947 201.649L438.605 424.744Z" fill="#75D81C"/><path d="M438.947 201.649L438.605 424.744" stroke="#75D81C" stroke-width="3.13" stroke-miterlimit="11.34"/><path d="M74.4515 200.047L74.1523 423.088Z" fill="#75D81C"/><path d="M74.4515 200.047L74.1523 423.088" stroke="#75D81C" stroke-width="2.99" stroke-miterlimit="11.34"/><path d="M78.5157 423.592H68.3184Z" fill="#75D81C"/><path d="M78.5157 423.592H68.3184" stroke="#75D81C" stroke-width="0.29" stroke-miterlimit="11.34"/><path d="M78.4496 423.142H78.4082Z" fill="#75D81C"/><path d="M78.4496 423.142H78.4082" stroke="#75D81C" stroke-width="0.28" stroke-miterlimit="11.34"/><path d="M78.6964 423.089L68.4082 423.116Z" fill="#75D81C"/><path d="M78.6964 423.089L68.4082 423.116" stroke="#75D81C" stroke-width="0.28" stroke-miterlimit="11.34"/><path d="M68.8633 423.987L70.9786 198.376Z" fill="#75D81C"/><path d="M68.8633 423.987L70.9786 198.376" stroke="#75D81C" stroke-width="0.58" stroke-miterlimit="11.34"/><path d="M80.3945 424.03V214.991L254.882 102.418L432.153 213.909V424.806" stroke="#40B71C" stroke-width="1.42" stroke-miterlimit="11.34"/><path d="M118.021 266.193H143.34V252.298H118.021V245.067H144.43V231.172H101.605V286.077H118.021V266.193Z" fill="white"/><path d="M141.677 286.077H158.765L161.617 276.94H180.383L183.235 286.077H200.324L180.223 231.418L180.127 231.172H161.852L141.842 285.574L141.666 286.066H141.682V286.082L141.677 286.077ZM171.003 246.854L176.067 262.976H165.955L171.019 246.854H171.003Z" fill="white"/><path d="M218.782 257.265L229.428 285.831L229.508 286.077H241.148L251.874 257.265V286.077H267.515V231.172H247.441L235.336 260.969L223.312 231.402L223.216 231.172H203.152V286.077H218.782V257.265Z" fill="white"/><path d="M290.889 231.172H274.484V286.066H290.889V231.172Z" fill="white"/><path d="M339.464 271.716H314.299V231.172H297.879V286.077H339.464V271.716Z" fill="white"/><path d="M361.07 231.172H344.666V286.066H361.07V231.172Z" fill="white"/><path d="M412.114 272.182H384.465V265.181H410.41V251.286H384.465V245.067H411.505V231.172H368.061V286.077H412.114V272.182Z" fill="white"/><path d="M142.685 351.784L134.988 324.712L134.918 324.434H118.952L111.185 351.784L106.97 324.749L106.928 324.434H88.9688L102.547 379.339H118.135L126.932 345.688L135.736 379.339H151.323L164.779 324.899L164.902 324.434H146.943L142.685 351.784Z" fill="white"/><path d="M193.463 323.357C177.101 323.357 165.227 335.363 165.227 351.886C165.227 368.409 177.101 380.414 193.463 380.414C209.825 380.414 221.699 368.409 221.699 351.886C221.699 335.363 209.825 323.357 193.463 323.357ZM193.463 366.064C185.301 366.064 181.588 358.721 181.588 351.886C181.588 345.051 185.301 337.707 193.463 337.707C201.625 337.707 205.338 345.051 205.338 351.886C205.338 358.721 201.625 366.064 193.463 366.064Z" fill="white"/><path d="M263.547 352.593L241.646 324.573L241.533 324.434H226.742V379.339H242.42V351.185L264.247 379.189L264.353 379.339H279.214V324.434H263.547V352.593Z" fill="white"/><path d="M302.559 324.434H286.197V379.328H302.559V324.434Z" fill="white"/><path d="M346.325 352.593L324.435 324.573L324.312 324.434H309.531V379.339H325.199V351.185L347.02 379.189L347.132 379.339H362.008V324.434H346.325V352.593Z" fill="white"/><path d="M393.684 348.422V361.621H405.393C404.015 365.245 400.644 367.145 395.596 367.145C386.563 367.145 383.342 359.266 383.342 351.885C383.342 344.504 387.626 337.241 395.831 337.241C401.974 337.241 404.522 341.068 405.505 343.37L405.601 343.589H421.926L421.845 343.15C419.378 330.759 409.533 323.346 395.532 323.346C377.039 323.346 367.061 338.049 367.061 351.875C367.061 369.2 378.209 380.403 395.447 380.403C412.684 380.403 422.374 370.351 422.374 354.818V348.417H393.689V348.433L393.684 348.422Z" fill="white"/><path d="M488.988 427.937H29.6523V431.684H488.988V427.937Z" fill="#353739"/><path d="M490.34 430.943L22.2129 431.926L22.2166 433.692L490.344 432.71L490.34 430.943Z" fill="#657484"/><defs><linearGradient id="paint0_linear_4814_3347" x1="257.309" y1="268.823" x2="255.093" y2="431.915" gradientUnits="userSpaceOnUse"><stop stop-color="#75D81C"/><stop offset="1" stop-color="#47BE1C"/></linearGradient></defs></svg>