<svg xmlns="http://www.w3.org/2000/svg" width="36" height="34" viewBox="0 0 36 34" fill="none"><path d="M36 1.125V14.2734C36 23.4844 28.4062 30.9375 19.1953 30.9375C13.5 30.9375 8.57812 27 7.17188 21.7266C4.85156 23.9062 3.375 26.9297 3.375 30.375V33.1875H0V30.375C0 25.1016 2.67188 20.4609 6.75 17.7188C7.24219 11.25 12.5859 6.1875 19.125 6.1875C23.2031 6.1875 26.7188 4.64062 29.1797 3.09375C30.5859 2.17969 31.9219 1.125 33.0469 0L36 1.125ZM32.625 4.78125C32.1328 5.13281 31.5703 5.55469 31.0078 5.90625C28.125 7.73438 24.0469 9.5625 19.125 9.5625C15.0469 9.5625 11.6719 12.2344 10.5469 15.8906C12.0234 15.4688 13.5703 15.1875 15.1875 15.1875H22.5V18.5625H15.1875C13.4297 18.5625 11.7422 18.9844 10.1953 19.6875C10.7578 24.1172 14.625 27.5625 19.1953 27.5625C26.5781 27.5625 32.625 21.5859 32.625 14.2734V4.78125Z" fill="#fff"/></svg>