<svg xmlns="http://www.w3.org/2000/svg" width="43" height="43" viewBox="0 0 43 43" fill="none"><path d="M17.1562 6.32812C19.0547 4.42969 20.3203 3.16406 20.8828 2.60156L23.2734 4.99219C22.7109 5.55469 21.4453 6.82031 19.5469 8.71875C18.9844 7.73438 18.1406 6.89062 17.1562 6.32812ZM8.71875 19.5469C6.82031 21.4453 5.55469 22.7109 4.99219 23.2734L2.60156 20.8828L6.32812 17.1562C6.89062 18.1406 7.73438 18.9844 8.71875 19.5469ZM5.0625 12.9375C5.0625 13.5 5.13281 14.0625 5.27344 14.625H0V11.25H5.27344C5.13281 11.8125 5.0625 12.375 5.0625 12.9375ZM6.32812 8.71875L2.60156 4.99219L4.99219 2.60156C5.55469 3.16406 6.82031 4.42969 8.71875 6.32812C7.73438 6.89062 6.89062 7.73438 6.32812 8.71875ZM11.25 1.6875V0H14.625V5.27344C14.0625 5.13281 13.5 5.0625 12.9375 5.0625C12.375 5.0625 11.8125 5.13281 11.25 5.27344V1.6875ZM17.6484 11.7422L11.6016 17.5781C9.77344 16.9453 8.4375 15.1875 8.4375 13.1484C8.4375 10.5469 10.5469 8.4375 13.1484 8.4375C15.2578 8.4375 17.0156 9.84375 17.6484 11.7422ZM26.5078 10.0547L41.6953 24.6797L42.8906 25.8047L40.5703 28.2656C39.6562 27.3516 39.0234 26.7891 38.8125 26.5781V42.1875H11.8125V26.5781C11.6016 26.7891 11.0391 27.3516 10.125 28.2656L7.73438 25.8047L9 24.6797L24.1875 10.0547L25.3125 8.92969L26.5078 10.0547ZM35.4375 23.3438L25.3125 13.5703L15.1875 23.3438V38.8125H35.4375V23.3438ZM21.9375 24.1875H28.6875V30.9375H21.9375V24.1875Z" fill="#fff"/></svg>