<svg xmlns="http://www.w3.org/2000/svg" width="35" height="36" viewBox="0 0 35 36" fill="none"><path d="M17.8594 0.351562L32.4141 5.97656L33.75 6.46875L33.8906 7.94531C34.0312 11.4609 33.5391 16.8047 31.2188 22.0781C28.9688 27.3516 24.8203 32.625 17.9297 35.5781L17.0156 36L16.1016 35.5781C9.21094 32.625 5.13281 27.3516 2.8125 22.0781C0.5625 16.8047 0 11.4609 0.210938 7.94531L0.28125 6.53906L1.61719 5.97656L16.2422 0.351562L17.0156 0L17.8594 0.351562ZM3.51562 8.85938C3.44531 11.9531 4.00781 16.3828 5.90625 20.7422C7.875 25.3125 11.3203 29.6719 17.0156 32.3438C22.7109 29.6719 26.1562 25.3125 28.125 20.7422C30.0234 16.3828 30.5859 11.9531 30.5156 8.85938L17.0156 3.65625L3.51562 8.85938ZM24.75 12.0234L23.7656 13.3594L16.5938 23.2734L15.3984 24.8906C14.7656 24.2578 13.2188 22.6406 10.7578 20.0391L9.5625 18.8438L12.0234 16.5234C12.6562 17.2266 13.7109 18.2812 15.0469 19.6875L21.0234 11.3906L22.0781 9.98438L24.75 12.0234Z" fill="#fff"/></svg>